TITLE ""
FILE "1Q_t_1901-1909.mp3" MP3
  TRACK 01 AUDIO
    TITLE "1Q_t_1901-1909_01"
    INDEX 01 00:00:00
  TRACK 02 AUDIO
    TITLE "1Q_t_1901-1909_02"
    INDEX 01 00:00:08
  TRACK 03 AUDIO
    TITLE "1Q_t_1901-1909_03"
    INDEX 01 00:01:39
  TRACK 04 AUDIO
    TITLE "1Q_t_1901-1909_04"
    INDEX 01 00:02:11
  TRACK 05 AUDIO
    TITLE "1Q_t_1901-1909_05"
    INDEX 01 00:03:16
  TRACK 06 AUDIO
    TITLE "1Q_t_1901-1909_06"
    INDEX 01 00:03:63
  TRACK 07 AUDIO
    TITLE "1Q_t_1901-1909_07"
    INDEX 01 00:04:63
  TRACK 08 AUDIO
    TITLE "1Q_t_1901-1909_08"
    INDEX 01 00:05:00
  TRACK 09 AUDIO
    TITLE "1Q_t_1901-1909_09"
    INDEX 01 00:07:42
  TRACK 10 AUDIO
    TITLE "1Q_t_1901-1909_10"
    INDEX 01 00:07:51
  TRACK 11 AUDIO
    TITLE "1Q_t_1901-1909_11"
    INDEX 01 00:11:61
  TRACK 12 AUDIO
    TITLE "1Q_t_1901-1909_12"
    INDEX 01 00:12:37
  TRACK 13 AUDIO
    TITLE "1Q_t_1901-1909_13"
    INDEX 01 00:13:40
  TRACK 14 AUDIO
    TITLE "1Q_t_1901-1909_14"
    INDEX 01 00:13:48
  TRACK 15 AUDIO
    TITLE "1Q_t_1901-1909_15"
    INDEX 01 00:17:01
  TRACK 16 AUDIO
    TITLE "1Q_t_1901-1909_16"
    INDEX 01 00:17:11
  TRACK 17 AUDIO
    TITLE "1Q_t_1901-1909_17"
    INDEX 01 00:22:26
  TRACK 18 AUDIO
    TITLE "1Q_t_1901-1909_18"
    INDEX 01 00:23:00
  TRACK 19 AUDIO
    TITLE "1Q_t_1901-1909_19"
    INDEX 01 00:24:13
  TRACK 20 AUDIO
    TITLE "1Q_t_1901-1909_20"
    INDEX 01 00:24:25
  TRACK 21 AUDIO
    TITLE "1Q_t_1901-1909_21"
    INDEX 01 00:26:45
  TRACK 22 AUDIO
    TITLE "1Q_t_1901-1909_22"
    INDEX 01 00:26:55
  TRACK 23 AUDIO
    TITLE "1Q_t_1901-1909_23"
    INDEX 01 00:32:53
  TRACK 24 AUDIO
    TITLE "1Q_t_1901-1909_24"
    INDEX 01 00:33:25
  TRACK 25 AUDIO
    TITLE "1Q_t_1901-1909_25"
    INDEX 01 00:34:35
  TRACK 26 AUDIO
    TITLE "1Q_t_1901-1909_26"
    INDEX 01 00:34:44
  TRACK 27 AUDIO
    TITLE "1Q_t_1901-1909_27"
    INDEX 01 00:37:55
  TRACK 28 AUDIO
    TITLE "1Q_t_1901-1909_28"
    INDEX 01 00:37:64
  TRACK 29 AUDIO
    TITLE "1Q_t_1901-1909_29"
    INDEX 01 00:41:60
  TRACK 30 AUDIO
    TITLE "1Q_t_1901-1909_30"
    INDEX 01 00:42:32
  TRACK 31 AUDIO
    TITLE "1Q_t_1901-1909_31"
    INDEX 01 00:43:41
  TRACK 32 AUDIO
    TITLE "1Q_t_1901-1909_32"
    INDEX 01 00:43:51
  TRACK 33 AUDIO
    TITLE "1Q_t_1901-1909_33"
    INDEX 01 00:46:55
  TRACK 34 AUDIO
    TITLE "1Q_t_1901-1909_34"
    INDEX 01 00:46:63
  TRACK 35 AUDIO
    TITLE "1Q_t_1901-1909_35"
    INDEX 01 00:51:59
  TRACK 36 AUDIO
    TITLE "1Q_t_1901-1909_36"
    INDEX 01 00:52:29
  TRACK 37 AUDIO
    TITLE "1Q_t_1901-1909_37"
    INDEX 01 00:53:34
  TRACK 38 AUDIO
    TITLE "1Q_t_1901-1909_38"
    INDEX 01 00:53:44
  TRACK 39 AUDIO
    TITLE "1Q_t_1901-1909_39"
    INDEX 01 00:56:68
  TRACK 40 AUDIO
    TITLE "1Q_t_1901-1909_40"
    INDEX 01 00:57:02
  TRACK 41 AUDIO
    TITLE "1Q_t_1901-1909_41"
    INDEX 01 01:01:47
  TRACK 42 AUDIO
    TITLE "1Q_t_1901-1909_42"
    INDEX 01 01:02:19
  TRACK 43 AUDIO
    TITLE "1Q_t_1901-1909_43"
    INDEX 01 01:03:40
  TRACK 44 AUDIO
    TITLE "1Q_t_1901-1909_44"
    INDEX 01 01:03:50
  TRACK 45 AUDIO
    TITLE "1Q_t_1901-1909_45"
    INDEX 01 01:07:13
  TRACK 46 AUDIO
    TITLE "1Q_t_1901-1909_46"
    INDEX 01 01:07:20
  TRACK 47 AUDIO
    TITLE "1Q_t_1901-1909_47"
    INDEX 01 01:12:67
  TRACK 48 AUDIO
    TITLE "1Q_t_1901-1909_48"
    INDEX 01 01:13:37
  TRACK 49 AUDIO
    TITLE "1Q_t_1901-1909_49"
    INDEX 01 01:14:46
  TRACK 50 AUDIO
    TITLE "1Q_t_1901-1909_50"
    INDEX 01 01:14:54
  TRACK 51 AUDIO
    TITLE "1Q_t_1901-1909_51"
    INDEX 01 01:17:54
  TRACK 52 AUDIO
    TITLE "1Q_t_1901-1909_52"
    INDEX 01 01:17:62
  TRACK 53 AUDIO
    TITLE "1Q_t_1901-1909_53"
    INDEX 01 01:21:54
  TRACK 54 AUDIO
    TITLE "1Q_t_1901-1909_54"
    INDEX 01 01:22:26
  TRACK 55 AUDIO
    TITLE "1Q_t_1901-1909_55"
    INDEX 01 01:23:35
  TRACK 56 AUDIO
    TITLE "1Q_t_1901-1909_56"
    INDEX 01 01:23:45
  TRACK 57 AUDIO
    TITLE "1Q_t_1901-1909_57"
    INDEX 01 01:24:44
  TRACK 58 AUDIO
    TITLE "1Q_t_1901-1909_58"
    INDEX 01 01:24:52
  TRACK 59 AUDIO
    TITLE "1Q_t_1901-1909_59"
    INDEX 01 01:28:24
